<?xml version="1.0" encoding="utf-8"?>
<!-- Generator: Adobe Illustrator 16.0.0, SVG Export Plug-In . SVG Version: 6.00 Build 0)  -->
<!DOCTYPE svg PUBLIC "-//W3C//DTD SVG 1.1//EN" "http://www.w3.org/Graphics/SVG/1.1/DTD/svg11.dtd">
<svg version="1.1" id="Layer_1" xmlns="http://www.w3.org/2000/svg" xmlns:xlink="http://www.w3.org/1999/xlink" x="0px" y="0px"
	 width="100px" height="100px" viewBox="0 0 100 100" enable-background="new 0 0 100 100" xml:space="preserve">
<g>
	<path fill="#FFFFFF" d="M50.015,1.069C39.062,14.651,24.915,19.95,7.686,16.595C7.287,61.029,27.782,82.023,50.017,98.931
		c22.001-16.685,42.87-38.033,42.292-82.295C74.417,19.959,61.065,14.803,50.015,1.069z"/>
	<path fill="none" stroke="#94273C" stroke-width="0.8872" stroke-miterlimit="2.6131" d="M50.015,1.069
		C39.062,14.651,24.915,19.95,7.686,16.595C7.287,61.029,27.782,82.023,50.017,98.931c22.001-16.685,42.87-38.033,42.292-82.295
		C74.417,19.959,61.065,14.803,50.015,1.069z"/>
	<path fill="#00714B" d="M82.886,50.91c-4.847,13.291-14.427,27.107-32.89,42.133C31.743,78.097,22.17,64.175,17.271,50.91H82.886z"
		/>
	<path fill="#8C2A3C" d="M12.442,22.054C34.89,22.29,41.344,17.76,49.997,8.152c9.342,9.326,15.533,14.192,37.563,13.902
		c-0.085,8.83-0.955,17.67-3.94,26.74H16.526C13.455,39.614,12.541,30.742,12.442,22.054"/>
	<path fill="#FFFFFF" d="M39.457,23.993c0.751,0.235,2.251-0.271,3.068,1.311c0.407,0.787,1.13,1.66,1.373,3.338l4.648-0.724
		c-0.521-1.829-0.161-1.87-0.62-3.305c2.874-0.276,5.663-0.895,8.263-2.271c1.273,1.067,2.409,1.961,3.924,2.582
		c-5.764,3.226-5.177,5.838-4.751,7.539l2.272,2.687c-0.092-5.637,3.54-9.234,8.057-10.329c-3.09-1.67-6.067-3.562-8.882-5.784
		c-5.142,1.809-11.489,3.851-14.149,1.859L39.457,23.993z"/>
	<path fill="#FFFFFF" d="M34.818,37.131c-0.017,0.176,3.89-1.972,4.85-1.503l-0.361-2.219c4.562-2.043,9.214-2.909,15.532-1.857
		c0.041-0.997,0.008-1.737,0.464-2.734c-2.1-0.378-4.198-0.447-6.347-0.62c-1.496,0.138-3.7,0.369-5.314,0.878
		c-1.615,0.509-3.363,1.196-4.851,1.341c-1.488,0.146-2.202-0.326-3.561-0.67c-1.118,1.289-1.771,1.856-3.457,3.354
		c1.365-0.313,3.419,0.164,3.115,3.302L34.818,37.131z"/>
	<path fill="#FFFFFF" d="M59.354,29.526c4.444,1.651,4.552,0.097,6.463-0.054l1.13,2.208c-5.862,1.74-8.608,8.726-4.308,12.712
		c-4.191,0.798-6.678-4.427-3.332-10.788c0.193-0.368-0.024-0.956,0.209-1.331l-1.24-0.323
		C58.491,30.979,58.921,30.441,59.354,29.526"/>
	<path fill="#FFFFFF" d="M61.938,35.936c-0.483,0.754-0.915,1.778-0.969,2.909c2.286,0.787,3.589,2.067,4.472,5.112
		c0.025,0.094,0.069,0.182,0.106,0.274c1.158,2.977,6.876,3.052,7.865,2.047c0.25-1.149-0.09-1.867-1.131-2.154
		c-1.203,0.008-1.06,1.211-2.155,0.915c-1.347-0.474-2.086-1.059-2.41-2.189c-0.485-1.688,0.469-3.506,3.057-4.112l-1.293-1.777
		C66.921,37.094,64.354,37.094,61.938,35.936"/>
	<path fill="#FFFFFF" d="M58.438,34.912l-0.593-0.161l-0.108,0.539l-0.269,0.107l-0.754-0.916c-2.55-0.305-5.099-0.322-7.648-0.054
		l-0.163,2.963c3.016-0.233,5.943-0.107,8.672,0.377C57.772,36.762,57.971,35.811,58.438,34.912"/>
	<path fill="#FFFFFF" d="M43.693,32.429l-0.207,14.86l4.335-0.206l0.206-2.374l3.2-0.206l0.516,0.516
		c-2.27,6.261-0.963,10.044,3.922,11.351l0.104-0.619c-3.234-2.271-3.716-8.015,0.516-11.041l-1.341-2.684
		c-2.513-0.667-4.92,1.147-6.916-0.207l0.723-10.216C47.167,31.741,45.481,31.672,43.693,32.429"/>
	<path fill="#FFFFFF" d="M38.224,60.497l-0.516,3.923c5.87,1.261,12.293,1.562,19.814-1.033c3.817-1.307,7.533-2.718,11.454-2.063
		c-0.756-1.135,2.924-8.049,6.089-4.024l1.755,0.104c-0.791-1.584-0.757-2.441,1.651-3.819c-2.649-0.309-4.575-0.104-6.398-1.549
		C64.039,59.526,51.725,63.328,38.224,60.497"/>
	<path fill="#FFFFFF" d="M54.426,47.495c-0.671,1.169-0.98,1.874-0.825,3.043c1.686,0.155,3.165,0.981,3.818,2.219l0.053-5.469
		L54.426,47.495z"/>
	<path fill="#FFFFFF" d="M43.602,50.762l-0.477,10.149c1.59,0.24,2.829,0.292,4.283,0.259l0.309-10.424L43.602,50.762z"/>
	<path fill="#FFFFFF" d="M43.022,65.503c1.811,0.229,3.366,0.135,4.747,0.201c0.375,6.169,2.704,8.655,7.864,10.304
		c1.034,0.332,2.306,0.674,3.06,1.156c-12.315,1.152-12.283-6.776-17.787-0.723l-1.496-2.116
		C41.261,72.585,42.345,69.175,43.022,65.503"/>
	<path fill="#FFFFFF" d="M43.104,35.315c-7.465,0.729-14.266,4.947-20.095,14.266c-0.454,0.651-1.365,1.669-1.535,1.859
		c0.763,0.132,1.317,0.723,1.669,1.055c3.017,5.471,6.333,8.643,9.76,10.432c0.486-1.276,0.588-2.557,0.767-3.834
		c-2.122-0.946-6.724-5.112-6.289-9.664c2.199-5.804,9.229-10.841,15.724-10.738L43.104,35.315L43.104,35.315z"/>
	<path fill="#FFFFFF" d="M35.062,41.802c1.307-1.141,2.724-1.951,4.361-2.104l0.154,8.504c3.528-0.844,7.427-0.921,10.955-0.688
		l-0.295,2.759c-3.604,0.076-7.593,0.076-11.274,1.305c-0.563,5.522-1.049,10.813-2.685,16.105c2.685,0.895,4.04,2.07,4.679,3.375
		l-1.228,2.3c-1.712-2.364-3.4-3.617-6.597-3.067l-1.534-1.381C34.974,62.441,34.602,49.881,35.062,41.802"/>
	<path fill="#FFFFFF" d="M41.263,76.428c0.345-0.117,1.38,1.839,3.145,2.338c0.086,0.083,1.229-0.042,0.652-0.268
		c-0.576-0.227-1.652-1.689-2.301-3.413C42.759,75.085,40.919,76.541,41.263,76.428"/>
</g>
</svg>
